# xmcd
#
# Track frame offsets: 
#        150
#        35466
#        66320
#        85965
#        108774
#        144565
#        164393
#        192185
#        214882
#        252958
#        273322
#        300434
#
# Disc length: 4361 seconds
#
# Revision: 2
# Processed by: cddbd v1.5.2PL0 Copyright (c) Steve Scherf et al.
# Submitted via: ExactAudioCopyFreeDBPlugin 1.0
#
DISCID=a611070c
DTITLE=Tadeusz Nalepa - Dbaj o milosc
DYEAR=2001
DGENRE=Blues
TTITLE0=Dbaj o milosc
TTITLE1=Nie miec nic
TTITLE2=Nie chce zyc
TTITLE3=Moj dom umiera
TTITLE4=Zerwany film
TTITLE5=Ten o tobie film
TTITLE6=Musze dzis ciebie zabic
TTITLE7=Pozwol mi byc z toba tu
TTITLE8=Jedz ostroznie, nie popedzaj kol
TTITLE9=Co jest co
TTITLE10=Hold
TTITLE11=Tak przez caly czas
EXTD=YEAR: 2001 ID3G: 0
EXTT0=
EXTT1=
EXTT2=
EXTT3=
EXTT4=
EXTT5=
EXTT6=
EXTT7=
EXTT8=
EXTT9=
EXTT10=
EXTT11=
PLAYORDER=
